<svg xmlns="http://www.w3.org/2000/svg" viewBox="3471.407 -155 112.593 118.519">
  <defs>
    <style>
      .cls-1 {
        fill-rule: evenodd;
      }
    </style>
  </defs>
  <path id="Settings_Temp_" data-name="Settings [Temp]" class="cls-1" d="M315.556,74.074a14.815,14.815,0,1,0-14.815-14.815A14.858,14.858,0,0,0,315.556,74.074Zm-30.37-47.408c5.185-4.444,11.111-8.148,17.778-9.63L308.889,0H323.7l5.926,17.037a51.727,51.727,0,0,1,17.778,9.63l17.778-3.7L372.593,36.3,360.741,49.63a42.238,42.238,0,0,1,.741,9.63c0,2.963-.741,6.667-.741,9.63l11.852,13.333-7.407,13.333-17.778-3.7C342.222,96.3,336.3,100,329.63,101.482L323.7,118.519H308.889l-5.926-17.037a51.726,51.726,0,0,1-17.778-9.63l-17.778,3.7L260,82.222l11.852-13.333a42.231,42.231,0,0,1-.741-9.63c0-2.963.741-6.667.741-9.63L260,36.3l7.407-13.333Z" transform="translate(3211.407 -155)"/>
</svg>
