<svg xmlns="http://www.w3.org/2000/svg" viewBox="3468 -337 120 120.618">
  <defs>
    <style>
      .cls-1 {
        fill-rule: evenodd;
      }
    </style>
  </defs>
  <path id="Notifications_Temp_" data-name="Notifications [Temp]" class="cls-1" d="M112.671,105.541H74.978a15.077,15.077,0,1,1-30.155,0H7.13a7.241,7.241,0,0,1-6.785-5.277c-.754-3.015,0-6.785,2.262-8.292,7.539-6.031,12.062-14.323,12.062-24.124V45.232a45.232,45.232,0,1,1,90.464,0V67.848c0,9.8,4.523,18.093,12.062,24.124,2.262,2.262,3.769,5.277,2.262,8.292A7.241,7.241,0,0,1,112.671,105.541Z" transform="translate(3467.938 -337)"/>
</svg>
